<?xml version="1.0" encoding="utf-8"?>
<!-- Generator: Adobe Illustrator 21.0.0, SVG Export Plug-In . SVG Version: 6.00 Build 0)  -->
<svg version="1.1" id="Calque_1" xmlns="http://www.w3.org/2000/svg" xmlns:xlink="http://www.w3.org/1999/xlink" x="0px" y="0px"
	 viewBox="0 0 981 1103.9" style="enable-background:new 0 0 981 1103.9;" xml:space="preserve">
<style type="text/css">
	.st0{fill:#4B0F0F;}
	.st1{fill:#777777;}
</style>
<g>
	<path class="st0" d="M388.5,444.5c7.2-21,21.4-37.5,34.4-54.8c1.9-2.5,3.7-5.1,5.5-7.6c5.2-5.5,9.6-11.7,13.8-17.9
		c6.1-9,8-18.2,4.3-28.9c-5.2-15-2.2-29.5,5-43.1c4.5-8.4,7.7-17.1,9.8-26.3c3.3-14.2,6.3-28.5,12.2-42c5.2-12.1,4.8-25-0.9-36.6
		c-9.8-20.2-12.8-42.4-21.2-63c0.8-18.8,9.6-31.8,27.1-39.4c17.9-7.8,36.4-12.9,55.7-15.2c2.1-0.2,4.1-0.1,5.8-1.7
		c9.6-8.2,21.2-11.5,33.4-11.6c30.3-0.4,59.4-8,88.8-14.3c36.2-7.8,72.1-6.8,107.6,4.3c8.2,2.6,16.7,4.2,25.1,5.9
		c33.9,6.9,61.1,24.6,83.3,50.7c0.3,0.4,0.6,1,1,1.2c12.4,6.2,15.2,19.3,22,29.6c6.9,10.4,16.3,19.3,22.5,30.1
		c10.2,17.7,17.2,37,17.4,57.8c0.2,13.9,1.5,27.7,3.8,41.3c4.5,26-0.1,50.5-11.1,73.9c-28.7,61.2-44.7,126.3-58.7,191.9
		c-8.5,39.8-6.2,79.6,13,116.9c9.7,18.8,24.7,33,39.9,46.9c17.2,15.6,35.1,30.5,52.7,45.7c0,121.9,0,243.9,0,365.8
		c-149,0-298.1,0-447.1,0c-1.3,0-2.6-0.1-3.9,0c-4.7,0.6-5.7-1.1-4.5-5.7c3.7-13.7,10.6-26.1,15.7-39.2
		c7.2-18.7,13.1-37.8,17.3-57.5c14.9-29.6,32.6-57.6,50.8-85.2c9.8-14.8,16.1-31.8,28.6-44.8c2-2.1,4.1-4,6.1-6
		c16.7-10.5,21.9-26.3,20.3-45c-1-11.4-2.7-22.8-3.4-34.2c-1-16.2-6.7-24.1-22.2-27.7c-8.8-2-14.2-7.3-15.1-15.8
		c-1.6-15.7-9.2-28-21.3-36.9c-15.4-11.3-21.5-25.8-20.7-44.6c0.7-15.7-5.5-20-21.1-16.1c-34.3,8.5-69,10.7-104,5.1
		c-13.1-2.1-24.8-13.5-25.1-26.3c-0.4-16.9,3.2-33.1,12.2-47.7c1.9-3.1,2.4-5.6,0.5-8.7c-5.6-9.3-6.2-19.3-3.6-29.5
		c3.3-12.8,1.7-24.3-8.2-33.9c-1.6-1.5-2.6-4-3.1-6.2c-3.2-12.7-11.5-20.9-23.1-25.9C393.9,467,386.4,458.8,388.5,444.5z"/>
	<path class="st1" d="M558.3,1001.9c-4.1,19.6-10,38.8-17.3,57.5c-5.1,13.1-12.1,25.5-15.7,39.2c-1.2,4.6-0.3,6.3,4.5,5.7
		c1.3-0.2,2.6,0,3.9,0c149,0,298.1,0,447.1,0c0,7.8-0.2,15.7,0.1,23.5c0.1,2.7-0.5,3.7-3.2,3.2c-1.3-0.2-2.6,0-3.9,0
		c-155.7,0-311.4,0-467,0c0-5.4,2.6-10.1,4.8-14.7c10.2-21.2,17.2-43.5,23.6-66.1C540.1,1032.8,547.6,1016.5,558.3,1001.9z"/>
	<path class="st1" d="M388.5,444.5c-2.1,14.3,5.3,22.5,17.6,27.9c11.6,5.1,19.9,13.2,23.1,25.9c0.6,2.2,1.5,4.7,3.1,6.2
		c9.9,9.7,11.4,21.1,8.2,33.9c-2.6,10.2-2,20.2,3.6,29.5c1.8,3,1.4,5.6-0.5,8.7c-9,14.6-12.5,30.8-12.2,47.7
		c0.3,12.8,12,24.2,25.1,26.3c35,5.6,69.7,3.4,104-5.1c15.6-3.9,21.8,0.4,21.1,16.1c-0.9,18.8,5.2,33.3,20.7,44.6
		c12.2,8.9,19.7,21.2,21.3,36.9c0.9,8.5,6.3,13.8,15.1,15.8c15.5,3.6,21.3,11.5,22.2,27.7c0.7,11.4,2.4,22.8,3.4,34.2
		c1.6,18.7-3.6,34.5-20.3,45c0.8-17.1-2.7-33.8-3.9-50.7c-0.8-11-8.9-17.8-19.4-20c-11.2-2.3-16.4-8.7-17.8-19.7
		c-1.8-14.3-9.5-25.5-20.8-33.7c-16.3-11.7-22.4-27.2-20.7-46.8c1.1-12.5-6.4-17.7-20.3-14.1c-18.8,4.9-37.9,7.4-57.2,8.4
		c-16,0.9-31.9-0.5-47.6-3c-18.6-2.9-30-22.2-24.3-41.1c3.6-11.8,3.7-24.9,12.6-35c2-2.3,0.3-5.1-1-7.3c-5.3-8.6-5.8-18-3.6-27.3
		c3.1-13.3,3.1-25.4-7.8-35.4c-0.9-0.8-1.7-2.1-2-3.3c-3.4-15.5-13.9-24.1-27.5-30.9c-15-7.5-18.3-17.9-11.5-33.1
		C375.5,462.7,381.2,453.1,388.5,444.5z"/>
	<path class="st1" d="M451.6,124.3c8.4,20.5,11.4,42.8,21.2,63c5.6,11.6,6.1,24.5,0.9,36.6c-5.9,13.5-8.8,27.8-12.2,42
		c-2.2,9.2-5.4,17.9-9.8,26.3c-7.2,13.6-10.2,28.1-5,43.1c3.7,10.7,1.8,20-4.3,28.9c-4.3,6.3-8.6,12.4-13.8,17.9
		c-0.6-3.3-1-6.7-2-9.9c-4.4-13.3-4.1-26.7,2.3-38.9c8.5-16.2,12.8-33.5,16.8-51c1.3-5.8,3-11.7,5.5-17.1c7.4-16.1,7-32.2-0.7-47.6
		c-8.8-17.7-11.4-37.3-18.3-55.6C427.6,149.9,439.8,128.7,451.6,124.3z"/>
</g>
</svg>
