<?xml version="1.0" encoding="utf-8"?>
<!-- Generator: Adobe Illustrator 21.0.0, SVG Export Plug-In . SVG Version: 6.00 Build 0)  -->
<svg version="1.1" id="Calque_1" xmlns="http://www.w3.org/2000/svg" xmlns:xlink="http://www.w3.org/1999/xlink" x="0px" y="0px"
	 viewBox="0 0 981 1103.9" style="enable-background:new 0 0 981 1103.9;" xml:space="preserve">
<style type="text/css">
	.st0{fill:#4B0F0F;}
	.st1{fill:#777777;}
</style>
<g>
	<path class="st0" d="M0.1,581.8c3.2-9.3,12.4-13,18.4-19.5c26.5-29,52.3-58.8,69.9-94.4c7.1-10.6,6.1-14.7-5.2-21.1
		c-9.1-8.4-13.7-19.9-20.4-29.9c-0.9-1.4-0.6-2.6-0.3-4.1c1.5-6.6,2.6-13.3,5.3-19.6c2.9-6.7,1.3-9-6.1-10.3
		c-4.8-0.8-9.6-1.6-14.3-3c-5.9-1.9-6.5-4.4-2.4-8.7c1.9-2,3.5-4,4.5-6.6c1-2.6,2.6-5.2,5.5-5.3c8-0.3,8.1-5.2,8.2-11.4
		c0.2-15.3,3.9-30.4,2.8-45.9c-0.3-4.2,1.7-8.3,4.3-11.4c10.4-12.6,11.2-27.5,11.1-42.7c0-8.3-0.3-16.5-1.7-24.7
		c-1.8-10.7,5.4-20.8,16.8-22.7c6.3-1.1,9.8-4.3,12.7-9.5c9.2-16.8,19.2-33.3,28-50.3c5.5-10.6,11.9-19.1,23.8-22.9
		c10.7-3.4,17.9-11.2,24-20.4c7.2-10.9,14.9-20.8,28.8-24.1c6.6-1.6,11.8-6.7,17.2-10.8c6.2-4.8,12.5-9.3,19.5-12.9
		c9.2-4.6,18.5-5.8,28.1-1.3c2.5,1.1,5,2.1,7.7,1.7c13.1-1.8,26.2-1.3,39.4-0.9c2,0.1,3.8-0.2,5.3-1.7c2.3-2.3,4.3-1.1,6.1,1
		c7.2,8.2,16.5,13.6,25.8,18.6c9,4.8,18.9,7.5,26.9,14.4c2.3,2,5.7,2.1,9.1,1.3c16.3-3.6,31.6-0.8,45.3,8.5c9.7,6.6,20.1,8,31.3,6.2
		c19.7-3.1,37.4,5.4,46.3,23c2.8,5.4,6.6,8.6,11.9,10.9c19.5,8.6,34.9,21.2,40.6,42.9c1.1,4.2,1.6,8.6,2.3,12.9
		c0.5,11-4.4,21.9-2.7,32.5c2.8,17.6-2.4,32-12.7,45.6c-10.5,13.8-10.6,17.7-1.6,33c0.9,1.5,1.1,2.8,0.1,4c-2.6,3-1.3,5.9-0.2,8.9
		c1.6,4,0.9,7.9,0.1,12.1c-3.5,17-15.7,30.7-18.4,48c-0.2,1.5-1.7,2.9-2.8,4.1c-4.7,5.3-4.1,9.5,2.2,12.5c4.5,2.1,8,5,9.2,9.7
		c3.8,14.8,5.9,29.9,0.1,44.5c-3.2,8-3.2,14.2,1.3,21.8c7.4,12.5-5.6,33.4-20,33.7c-9,0.3-16.6-3.1-23.7-8.2
		c-4.6-3.3-8-2.9-10.5,2.4c-3.9,8.4-10.8,13.2-19.5,15.1c-6.7,1.4-10.9,4.8-13.3,11c-1.6,4.1-4.7,8-9.2,6.7
		c-6.4-1.9-13-1.5-19.3-2.9c-4.7-1.1-5.7-0.2-5.3,4c0.5,6.2-2.9,7.5-8.2,6.8c-4.2-0.6-8.4-0.5-11.6,2.8c-4.4,4.7-6.5,11.5-13.3,14.1
		c-0.7,0.3-0.8,2.7-0.8,4.1c0.2,3.4,0.9,6.8,0.9,10.1c0,6,4.1,11.8,2.1,17.7c-2.2,6.6-5.6,12.9-8.7,19.2
		c-2.7,5.7-6.6,10.6-12.9,12.2c-8.6,2.2-14.6,7.9-19.6,14.5c-9.1,11.9-22.1,18-35,24.1c-3.7,1.7-6.7,3.5-8.9,7
		c-2.4,3.9-4.6,8.1-9,10.3c-5.2,2.7-8.5,0.9-8.8-5c-0.2-3.9,0.2-7.8-0.3-11.6c-0.7-5.3-4.3-7.4-9.4-6.7
		c-4.8,0.6-16.1,13.3-16.2,18.2c0,2.1,0.8,4.1,2.4,5.1c9.5,6.4,15.2,16.2,22.3,24.7c2.1,4.1,4.2,8.2,6.4,12.2c1.1,2,2.5,4.3,1,6.1
		c-5.1,6.4,0.7,7.5,4.4,9.5c1.9,1,4.2,1.2,6.2,2c3.7,1.4,6,3.9,3.9,7.8c-2.7,5.1-0.3,9,2.7,12.5c12.8,15,23.5,31.6,35.5,47.2
		c7,9.2,8,20.7,11.8,31.1c1.7,13.2,3.7,26.4,5,39.6c1.4,15.2,7.3,29.7,6.9,45.2c-0.9,35,0,70-1.3,105c-1.1,30.9-0.4,61.8-0.6,92.6
		c-123.7,0-247.5,0-371.2,0.2c-5.4,0-6.3-1.3-6.3-6.4C0.2,925.7,0.1,753.7,0.1,581.8z"/>
	<path class="st1" d="M377.5,1104c0.1-30.9-0.6-61.8,0.6-92.6c1.3-35,0.3-70,1.3-105c0.4-15.5-5.5-30-6.9-45.2
		c-1.2-13.3-3.3-26.4-5-39.6c11.8,11.1,15.8,25.9,18.5,41.1c4.4,24.7,8,49.5,11.6,74.2c3.1,21,0.6,42.8,0.4,64.2
		c-0.4,34.3-0.9,68.7-1.4,103C390.2,1104,383.8,1104,377.5,1104z"/>
	<path class="st1" d="M295.5,693c-7.1-8.5-12.8-18.3-22.3-24.7c-1.6-1.1-2.4-3-2.4-5.1c0.1-4.8,11.4-17.6,16.2-18.2
		c5.2-0.7,8.7,1.4,9.4,6.7c0.5,3.8,0.1,7.8,0.3,11.6c0.3,5.9,3.6,7.7,8.8,5c4.4-2.2,6.5-6.5,9-10.3c2.2-3.5,5.2-5.2,8.9-7
		c12.9-6.1,25.9-12.1,35-24.1c5-6.6,11-12.3,19.6-14.5c6.2-1.6,10.1-6.5,12.9-12.2c3.1-6.3,6.5-12.6,8.7-19.2c2-5.9-2-11.7-2.1-17.7
		c0-3.4-0.7-6.8-0.9-10.1c-0.1-1.4,0.1-3.8,0.8-4.1c6.8-2.6,8.9-9.4,13.3-14.1c3.2-3.4,7.4-3.4,11.6-2.8c5.3,0.7,8.7-0.5,8.2-6.8
		c-0.4-4.2,0.6-5.1,5.3-4c6.3,1.4,12.9,1,19.3,2.9c4.5,1.3,7.6-2.6,9.2-6.7c2.5-6.2,6.7-9.6,13.3-11c8.7-1.8,15.6-6.7,19.5-15.1
		c2.5-5.4,5.9-5.7,10.5-2.4c7,5.1,14.6,8.4,23.7,8.2c14.4-0.4,27.4-21.3,20-33.7c-4.5-7.6-4.5-13.8-1.3-21.8
		c5.7-14.6,3.6-29.7-0.1-44.5c-1.2-4.7-4.8-7.6-9.2-9.7c-6.3-3-6.9-7.2-2.2-12.5c1.1-1.2,2.6-2.6,2.8-4.1c2.7-17.3,14.8-31,18.4-48
		c0.9-4.2,1.5-8.1-0.1-12.1c-1.1-3-2.4-5.9,0.2-8.9c1.1-1.2,0.8-2.5-0.1-4c-9.1-15.3-8.9-19.2,1.6-33c10.3-13.5,15.4-28,12.7-45.6
		c-1.7-10.6,3.2-21.5,2.7-32.5c12.9,10.4,17.8,24.7,18.6,40.5c0.7,15.4-2.9,30.7-1.9,46.4c0.8,12.9-7.2,23.9-15.3,33.9
		c-7.8,9.8-7.8,19.6,0.1,29.6c0.6,0.7,1.7,2.1,1.5,2.3c-5.7,6.5,1.9,13-0.1,19.3c-3.1,9.7-4.7,20.1-10.6,28.6
		c-3.7,5.4-5.8,11.2-7,17.4c-0.9,4.3-2,8.2-5.7,11.4c-3.4,2.9-2.1,9.2,2.3,10.7c8.6,2.9,11,9.6,12.2,17.4
		c2.3,14.9,3.1,29.5-4.1,43.5c-2,4-0.8,8.3,1.8,11.8c8.9,12.3,2.3,23.1-5,32.5c-6.5,8.4-16.2,5.9-25,3.3c-4.5-1.3-8.4-3.9-12.1-6.6
		c-4.3-3.2-7.7-2.7-9.9,2.3c-3.9,8.8-11.1,13.5-20,15.5c-6.3,1.4-10.5,4.5-12.9,10.5c-2.5,6.4-7.1,9.3-13.9,6
		c-6.2-3-13.1,0.6-18.9-3c-2,2.1-0.4,4.1-0.6,5.9c-0.5,4.7-2.6,7.6-7.5,6.4c-8.4-2.1-13.6,1.3-17.2,8.4c-0.9,1.7-2,4-3.5,4.5
		c-8.3,3.1-7,9.6-5.5,15.6c2.9,11.7,2.2,22.4-3.6,33.4c-4.7,9-9.3,16.8-19.9,19.6c-7.1,1.9-11.7,7.8-15.9,13.5
		c-8.6,11.3-21,17.1-33.2,22.9c-4.6,2.2-8.5,4.2-10.9,8.8c-0.9,1.7-2.2,3.2-3.4,4.7c-2.8,3.5-6.1,7.1-11,4.9c-4.5-2-3-6.5-3-10.3
		c0-4.6,2-10.4-4.1-12.6C303.8,683,299.1,687.1,295.5,693z"/>
	<path class="st0" d="M456.1,761.7c-6.5,0-12-8-8.4-12.9c6.2-8.4,4.7-17.4,3.4-26.5c-0.9-6.7-2.1-13.5-2.6-20.2
		c-0.9-13.8,4.8-22.8,17.7-28.5c2.5-1.1,3-2.8,3.4-5.1c1-6.2,2.5-12.3,0.3-18.7c-1.1-3.2-0.4-6.9,1.2-9.9
		c4.3-8.1,8.8-16.1,13.4-24.1c1.4-2.4,3.6-4.2,6.7-3.3c4.1,1.3,5.1,5,5.9,8.5c0.6,2.5-0.3,4.2-3.2,5.6c-8.8,4.4-14.6,21-10.9,30
		c2.9,6.8,4.8,13.7,4.3,21.2c-0.3,4-1.2,7.9-4,10.7c-10.3,10.4-15.4,23-17.2,37.4c-0.4,3.5-0.3,6.7,0.7,10c1.1,3.7,2.3,7.5,2.7,11.3
		C470.8,758,467.2,761.7,456.1,761.7z"/>
	<path class="st1" d="M83.2,446.8c11.3,6.4,12.3,10.5,5.2,21.1C85.2,461.2,80.5,454.9,83.2,446.8z"/>
</g>
</svg>
